<svg xmlns="http://www.w3.org/2000/svg" width="31" height="31" fill="none"><path fill="#202020" fill-rule="evenodd" d="M8 7.79V4H1v5a3.5 3.5 0 0 0 .748 2.162L5.548 16l-3.8 4.838A3.5 3.5 0 0 0 1 23v4h3v-1h1v1h3v-2.79l2-2.545 2 2.546V27h7v-4a3.5 3.5 0 0 0-.748-2.162L14.452 16l2.62-3.335L23 20.211V27h7V4h-3v1.438h-1V4h-3v5.009L19 4h-3v1.25h-1V4h-3v3.79l-2 2.545-2-2.546ZM16 9V7.75h-1v1.077l-.81 1.03.787.619.916-1.167A.5.5 0 0 0 16 9Zm-4.69 6.142 1.833-2.333-.786-.618-1.833 2.333.786.618ZM7.643 19.81l1.833-2.333-.786-.618-1.833 2.333.786.618ZM5 23.173l.81-1.03-.786-.619-.917 1.167A.5.5 0 0 0 4 23v1h1v-.827Zm21-11.985V8.312h1v2.876h-1Zm0 5.75v-2.875h1v2.874h-1Zm0 5.75v-2.875h1v2.875h-1ZM26 27v-1.438h1V27h-1Z" clip-rule="evenodd"/></svg>