<svg xmlns="http://www.w3.org/2000/svg" width="46" height="46" fill="none"><g clip-path="url(#a)"><rect width="32.527" height="32.527" x="23" fill="#FFE134" rx="4" transform="rotate(45 23 0)"/><path fill="#101010" fill-rule="evenodd" d="M15 14.79V11H8v5a3.5 3.5 0 0 0 .748 2.162L19 31.211V34h7v-4a3.5 3.5 0 0 0-.748-2.162L15 14.789ZM26 11l10.252 12.838A3.5 3.5 0 0 1 37 26v8h-7v-6.79L19.748 14.162 23.773 11H26Z" clip-rule="evenodd"/><path fill="#101010" fill-rule="evenodd" d="M19 14.79V11h7v5a3.5 3.5 0 0 1-.748 2.162L15 31.211V34H8v-4a3.5 3.5 0 0 1 .748-2.162L19 14.789ZM30 27V11h7v16h-7Z" clip-rule="evenodd"/><path fill="#fff" fill-rule="evenodd" d="M33 12.438V11h1v1.438h-1Zm0 5.75v-2.875h1v2.874h-1Zm0 5.75v-2.875h1v2.875h-1Zm0 5.75v-2.875h1v2.875h-1ZM33 34v-1.438h1V34h-1ZM23 12.25V11h-1v1.25h1ZM23 16v-1.25h-1v1.077l-.81 1.03.787.619.916-1.167A.5.5 0 0 0 23 16Zm-4.69 6.142 1.833-2.333-.786-.618-1.834 2.333.787.618Zm-3.667 4.667 1.834-2.333-.787-.618-1.833 2.333.786.618ZM12 30.173l.81-1.03-.787-.619-.916 1.167A.5.5 0 0 0 11 30v1h1v-.827ZM12 34v-1h-1v1h1Z" clip-rule="evenodd" opacity=".9"/></g><defs><clipPath id="a"><path fill="#fff" d="M0 0h46v46H0z"/></clipPath></defs></svg>