<svg xmlns="http://www.w3.org/2000/svg" width="46" height="46" fill="none"><g clip-path="url(#a)"><rect width="32.527" height="32.527" x="23" fill="#FFE134" rx="6" transform="rotate(45 23 0)"/><path fill="#202020" fill-rule="evenodd" d="M15 14.79V11H8v5a3.5 3.5 0 0 0 .748 2.162l3.8 4.838-3.8 4.838A3.5 3.5 0 0 0 8 30v4h3v-1h1v1h3v-2.79l2-2.545 2 2.546V34h7v-4a3.5 3.5 0 0 0-.748-2.162L21.452 23l2.62-3.335L30 27.211V34h7V11h-3v1.438h-1V11h-3v5.009L26 11h-3v1.25h-1V11h-3v3.79l-2 2.545-2-2.546ZM23 16v-1.25h-1v1.077l-.81 1.03.787.619.916-1.167A.5.5 0 0 0 23 16Zm-4.69 6.142 1.833-2.333-.786-.618-1.834 2.333.787.618Zm-3.667 4.667 1.834-2.333-.787-.618-1.833 2.333.786.618ZM12 30.173l.81-1.03-.787-.619-.916 1.167A.5.5 0 0 0 11 30v1h1v-.827Zm21-11.985v-2.875h1v2.874h-1Zm0 5.75v-2.875h1v2.875h-1Zm0 5.75v-2.875h1v2.875h-1ZM33 34v-1.438h1V34h-1Z" clip-rule="evenodd"/></g><defs><clipPath id="a"><path fill="#fff" d="M0 0h46v46H0z"/></clipPath></defs></svg>