<?xml version="1.0" standalone="no"?>
<!DOCTYPE svg PUBLIC "-//W3C//DTD SVG 20010904//EN"
 "http://www.w3.org/TR/2001/REC-SVG-20010904/DTD/svg10.dtd">
<svg version="1.0" xmlns="http://www.w3.org/2000/svg"
 width="700.000000pt" height="700.000000pt" viewBox="0 0 700.000000 700.000000"
 preserveAspectRatio="xMidYMid meet">
<metadata>
Created by potrace 1.14, written by Peter Selinger 2001-2017
</metadata>
<g transform="translate(0.000000,700.000000) scale(0.100000,-0.100000)"
fill="#000000" stroke="none">
<path d="M1223 5316 c-8 -12 -7 -778 1 -831 19 -124 57 -188 281 -471 77 -97
199 -252 272 -345 l132 -168 -92 -118 c-50 -65 -93 -120 -97 -123 -3 -3 -19
-23 -35 -45 -16 -22 -35 -47 -42 -55 -138 -167 -347 -446 -371 -493 -48 -97
-54 -158 -55 -517 l-1 -325 532 0 c348 0 532 3 533 10 0 6 1 102 1 215 0 113
4 207 7 210 4 3 54 66 111 140 58 74 110 142 117 150 7 8 25 32 41 52 l29 37
109 -141 c60 -77 114 -146 119 -152 6 -6 25 -30 42 -52 l33 -41 2 -214 3 -214
520 0 c286 -1 525 1 531 2 7 3 10 109 9 346 -2 368 -5 396 -56 498 -21 42
-371 501 -556 729 -47 58 -73 94 -73 101 0 5 56 79 125 166 69 87 128 163 133
168 4 6 36 47 71 91 l64 82 135 -172 c74 -94 145 -184 158 -201 259 -330 347
-443 357 -455 7 -8 35 -44 62 -80 28 -36 55 -70 60 -76 6 -6 37 -45 70 -88
l60 -76 1 -513 c1 -281 2 -514 3 -517 1 -4 1027 -5 1054 -1 4 1 7 788 7 1749
l0 1748 -532 0 -533 -1 0 -377 c0 -207 -2 -375 -6 -373 -3 2 -140 173 -305
379 l-299 375 -530 -2 -530 -3 -5 -291 -5 -291 -149 -190 -149 -190 -151 192
-151 191 -2 270 c-1 149 -2 279 -2 290 -1 21 -5 21 -527 21 -335 0 -527 -3
-531 -10z"/>
</g>
</svg>
