<?xml version="1.0" standalone="no"?>
<!DOCTYPE svg PUBLIC "-//W3C//DTD SVG 20010904//EN"
 "http://www.w3.org/TR/2001/REC-SVG-20010904/DTD/svg10.dtd">
<svg version="1.0" xmlns="http://www.w3.org/2000/svg"
 width="700.000000pt" height="700.000000pt" viewBox="0 0 700.000000 700.000000"
 preserveAspectRatio="xMidYMid meet">
<metadata>
Created by potrace 1.14, written by Peter Selinger 2001-2017
</metadata>
<g transform="translate(0.000000,700.000000) scale(0.100000,-0.100000)"
fill="#000000" stroke="none">
<path d="M1220 4667 c0 -473 2 -492 59 -605 16 -31 160 -218 320 -416 l290
-359 -18 -26 c-11 -14 -143 -181 -295 -371 -152 -190 -287 -367 -301 -395 -50
-103 -55 -144 -55 -497 l0 -328 530 0 530 0 0 198 0 197 146 182 c80 101 148
183 152 183 4 -1 76 -86 160 -190 l152 -189 0 -191 0 -190 533 2 532 3 0 320
c0 226 -4 334 -13 368 -24 91 -67 162 -197 323 -71 89 -210 261 -309 383
l-178 221 197 247 c109 137 201 252 205 256 4 5 207 -222 451 -502 l444 -511
6 -242 c3 -134 7 -384 8 -555 l1 -313 530 0 530 0 0 1715 0 1715 -530 0 -530
0 0 -351 c0 -193 -4 -349 -8 -347 -5 2 -136 149 -292 328 -155 179 -288 324
-296 324 -8 -1 -14 8 -14 22 l0 24 -535 0 -535 0 0 -282 0 -283 -156 -195
c-86 -107 -159 -195 -162 -195 -3 0 -70 79 -148 175 l-143 175 -1 303 0 302
-530 0 -530 0 0 -433z"/>
</g>
</svg>
